<svg width="35" height="35" viewBox="0 0 35 35" fill="none" xmlns="http://www.w3.org/2000/svg">
<path d="M23.7355 20.5906L18.8555 16.9306V9.47519C18.8555 8.72557 18.2496 8.11963 17.4999 8.11963C16.7503 8.11963 16.1444 8.72557 16.1444 9.47519V17.6085C16.1444 18.0354 16.345 18.4381 16.6866 18.6929L22.1087 22.7595C22.3527 22.9425 22.6374 23.0307 22.9207 23.0307C23.3341 23.0307 23.7408 22.8449 24.0065 22.4871C24.4567 21.8892 24.3346 21.0393 23.7355 20.5906Z" fill="white"/>
<path d="M17.5 0C7.84991 0 0 7.84991 0 17.5C0 27.1501 7.84991 35 17.5 35C27.1501 35 35 27.1501 35 17.5C35 7.84991 27.1501 0 17.5 0ZM17.5 32.2889C9.34644 32.2889 2.71106 25.6536 2.71106 17.5C2.71106 9.34644 9.34644 2.71106 17.5 2.71106C25.6549 2.71106 32.2889 9.34644 32.2889 17.5C32.2889 25.6536 25.6536 32.2889 17.5 32.2889Z" fill="white"/>
</svg>
