<svg width="35" height="36" viewBox="0 0 35 36" fill="none" xmlns="http://www.w3.org/2000/svg">
<path d="M34.911 10.2921C34.829 8.43205 34.5282 7.15328 34.0974 6.04522C33.6528 4.86903 32.969 3.81599 32.073 2.9406C31.1976 2.05158 30.1376 1.36077 28.9751 0.923211C27.8606 0.492326 26.5885 0.191534 24.7285 0.109524C22.8545 0.0205692 22.2596 0 17.5068 0C12.754 0 12.1591 0.0205692 10.2921 0.102579C8.43204 0.184589 7.15328 0.485647 6.04548 0.916266C4.86903 1.36077 3.81599 2.04463 2.9406 2.9406C2.05158 3.81599 1.36104 4.87597 0.923211 6.03854C0.492326 7.15328 0.191534 8.4251 0.109524 10.2851C0.0205692 12.1591 0 12.754 0 17.5068C0 22.2596 0.0205692 22.8545 0.102579 24.7215C0.184589 26.5816 0.485647 27.8603 0.916532 28.9684C1.36104 30.1446 2.05158 31.1976 2.9406 32.073C3.81599 32.9621 4.87597 33.6529 6.03854 34.0904C7.15328 34.5213 8.4251 34.8221 10.2854 34.9041C12.1521 34.9864 12.7473 35.0067 17.5001 35.0067C22.253 35.0067 22.8479 34.9864 24.7149 34.9041C26.5749 34.8221 27.8537 34.5213 28.9615 34.0904C31.3141 33.1808 33.1741 31.3208 34.0837 28.9684C34.5144 27.8537 34.8154 26.5816 34.8974 24.7215C34.9794 22.8545 35 22.2596 35 17.5068C35 12.754 34.9931 12.1591 34.911 10.2921ZM31.7586 24.5848C31.6833 26.2944 31.3961 27.2176 31.1568 27.8331C30.5685 29.3582 29.3582 30.5685 27.8331 31.1568C27.2176 31.3961 26.2877 31.6833 24.5848 31.7583C22.7383 31.8406 22.1846 31.8609 17.5138 31.8609C12.8429 31.8609 12.2822 31.8406 10.4425 31.7583C8.73284 31.6833 7.80963 31.3961 7.19415 31.1568C6.43523 30.8763 5.74442 30.4318 5.18371 29.8505C4.60243 29.2828 4.15792 28.599 3.87743 27.84C3.63808 27.2246 3.35091 26.2944 3.27585 24.5917C3.19357 22.7453 3.17327 22.1913 3.17327 17.5204C3.17327 12.8496 3.19357 12.2889 3.27585 10.4494C3.35091 8.73978 3.63808 7.81657 3.87743 7.2011C4.15792 6.44191 4.60243 5.75137 5.19066 5.19039C5.75805 4.60911 6.44191 4.1646 7.2011 3.88438C7.81657 3.64503 8.74673 3.35786 10.4494 3.28253C12.2959 3.20052 12.8499 3.17995 17.5204 3.17995C22.1982 3.17995 22.752 3.20052 24.5917 3.28253C26.3014 3.35786 27.2246 3.64503 27.84 3.88438C28.599 4.1646 29.2898 4.60911 29.8505 5.19039C30.4318 5.75805 30.8763 6.44191 31.1568 7.2011C31.3961 7.81657 31.6833 8.74646 31.7586 10.4494C31.8406 12.2959 31.8612 12.8496 31.8612 17.5204C31.8612 22.1913 31.8406 22.7383 31.7586 24.5848Z" fill="white"/>
<path d="M17.5069 8.51392C12.5422 8.51392 8.5141 12.5417 8.5141 17.5067C8.5141 22.4716 12.5422 26.4994 17.5069 26.4994C22.4718 26.4994 26.4996 22.4716 26.4996 17.5067C26.4996 12.5417 22.4718 8.51392 17.5069 8.51392ZM17.5069 23.3401C14.286 23.3401 11.6735 20.7278 11.6735 17.5067C11.6735 14.2856 14.286 11.6733 17.5069 11.6733C20.7279 11.6733 23.3402 14.2856 23.3402 17.5067C23.3402 20.7278 20.7279 23.3401 17.5069 23.3401V23.3401Z" fill="white"/>
<path d="M28.9548 8.15848C28.9548 9.31783 28.0148 10.2579 26.8551 10.2579C25.6958 10.2579 24.7557 9.31783 24.7557 8.15848C24.7557 6.99886 25.6958 6.05908 26.8551 6.05908C28.0148 6.05908 28.9548 6.99886 28.9548 8.15848V8.15848Z" fill="white"/>
</svg>
