<svg width="35" height="25" viewBox="0 0 35 25" fill="none" xmlns="http://www.w3.org/2000/svg">
<path d="M23.2006 12.2107L35 19.67V4.43628L23.2006 12.2107Z" fill="white"/>
<path d="M0 4.43628V19.67L11.7994 12.2107L0 4.43628Z" fill="white"/>
<path d="M32.8125 0H2.1875C1.09593 0 0.229685 0.81375 0.0656223 1.86156L17.5 13.3481L34.9344 1.86156C34.7703 0.81375 33.9041 0 32.8125 0Z" fill="white"/>
<path d="M21.1969 13.5318L18.1016 15.5706C17.9178 15.6909 17.71 15.75 17.5 15.75C17.29 15.75 17.0822 15.6909 16.8984 15.5706L13.8031 13.5297L0.0699954 22.2162C0.238433 23.2553 1.10031 24.0625 2.1875 24.0625H32.8125C33.8997 24.0625 34.7616 23.2553 34.93 22.2162L21.1969 13.5318Z" fill="white"/>
</svg>
