<svg width="35" height="49" viewBox="0 0 35 49" fill="none" xmlns="http://www.w3.org/2000/svg">
<path d="M17.5 0C7.85045 0 0 7.85045 0 17.4999C0 29.4752 15.6608 47.0556 16.3276 47.7982C16.9538 48.4957 18.0473 48.4945 18.6724 47.7982C19.3392 47.0556 35 29.4752 35 17.4999C34.9998 7.85045 27.1495 0 17.5 0ZM17.5 26.3046C12.6451 26.3046 8.6954 22.3548 8.6954 17.4999C8.6954 12.645 12.6452 8.69531 17.5 8.69531C22.3548 8.69531 26.3045 12.6451 26.3045 17.5C26.3045 22.3549 22.3548 26.3046 17.5 26.3046Z" fill="white"/>
</svg>
