<svg width="35" height="36" viewBox="0 0 35 36" fill="none" xmlns="http://www.w3.org/2000/svg">
<path d="M34.0822 25.7405L29.1876 20.8459C27.4395 19.0978 24.4677 19.7971 23.7685 22.0695C23.2441 23.6429 21.496 24.5169 19.9227 24.1672C16.4266 23.2932 11.7067 18.7482 10.8327 15.0772C10.3083 13.5039 11.3571 11.7558 12.9304 11.2314C15.2029 10.5322 15.9021 7.56046 14.1541 5.81237L9.25943 0.917743C7.86096 -0.305914 5.76327 -0.305914 4.53961 0.917743L1.21825 4.2391C-2.10311 7.73527 1.56787 17.0001 9.78386 25.2161C17.9998 33.4321 27.2647 37.2779 30.7608 33.7817L34.0822 30.4603C35.3059 29.0619 35.3059 26.9642 34.0822 25.7405Z" fill="white"/>
</svg>
